<svg
        xmlns="http://www.w3.org/2000/svg"
        xmlns:xlink="http://www.w3.org/1999/xlink"
        version="1.1" x="0px" y="0px"
        viewBox="0 0 100 125"
        enable-background="new 0 0 100 100"
        xml:space="preserve"><g><path d="M527.4,2.94c-6.42,0-11.64,5.22-11.64,11.64V53.5c0,6.42,5.22,11.64,11.64,11.64c6.42,0,11.64-5.22,11.64-11.64V14.58   C539.04,8.16,533.82,2.94,527.4,2.94z M533.04,53.5c0,3.11-2.53,5.64-5.64,5.64c-3.11,0-5.64-2.53-5.64-5.64V14.58   c0-3.11,2.53-5.64,5.64-5.64c3.11,0,5.64,2.53,5.64,5.64V53.5z"/></g><g><path d="M549.5,47.51v6.35c0,11.17-8.32,20.43-19.1,21.89v6.85h8.94c1.66,0,3,1.35,3,3c0,1.66-1.34,3-3,3h-23.88   c-1.65,0-3-1.34-3-3c0-1.65,1.35-3,3-3h8.94v-6.85c-10.77-1.46-19.1-10.72-19.1-21.89v-6.35c0-1.66,1.34-3,3-3c1.66,0,3,1.34,3,3   v6.35c0,8.88,7.22,16.1,16.1,16.1s16.1-7.22,16.1-16.1v-6.35c0-1.66,1.35-3,3-3C548.16,44.51,549.5,45.85,549.5,47.51z"/></g><g><path fill="none" stroke="#ffffff" stroke-width="6" stroke-linecap="round" stroke-linejoin="round" stroke-miterlimit="10" d="   M527.403-29.274"/></g><g><path d="M50,5c-6.745,0-12.23,5.484-12.23,12.23v40.892c0,6.745,5.484,12.23,12.23,12.23c6.745,0,12.23-5.485,12.23-12.23V17.23   C62.23,10.484,56.745,5,50,5z M55.926,58.122c0,3.268-2.658,5.926-5.926,5.926c-3.268,0-5.926-2.658-5.926-5.926V17.23   c0-3.268,2.658-5.926,5.926-5.926c3.268,0,5.926,2.658,5.926,5.926V58.122z"/></g><g><path d="M73.22,51.828V58.5c0,11.736-8.742,21.465-20.068,22.999v7.197h9.393c1.744,0,3.152,1.418,3.152,3.152   c0,1.744-1.408,3.152-3.152,3.152h-25.09c-1.734,0-3.152-1.408-3.152-3.152c0-1.734,1.418-3.152,3.152-3.152h9.393v-7.197   C35.532,79.965,26.78,70.236,26.78,58.5v-6.672c0-1.744,1.408-3.152,3.152-3.152c1.744,0,3.152,1.408,3.152,3.152V58.5   c0,9.33,7.586,16.916,16.916,16.916S66.916,67.83,66.916,58.5v-6.672c0-1.744,1.418-3.152,3.152-3.152   C71.812,48.676,73.22,50.084,73.22,51.828z"/></g></svg>